<?xml version="1.0" standalone="no"?>
<!DOCTYPE svg PUBLIC "-//W3C//DTD SVG 20010904//EN"
 "http://www.w3.org/TR/2001/REC-SVG-20010904/DTD/svg10.dtd">
<svg version="1.0" xmlns="http://www.w3.org/2000/svg"
 width="612.000000pt" height="612.000000pt" viewBox="0 0 612.000000 612.000000"
 preserveAspectRatio="xMidYMid meet">
<metadata>
Created by potrace 1.14, written by Peter Selinger 2001-2017
</metadata>
<g transform="translate(0.000000,612.000000) scale(0.100000,-0.100000)"
fill="#000000" stroke="none">
<path d="M2585 5280 c-64 -13 -171 -59 -233 -100 -211 -138 -307 -358 -258
-590 34 -165 167 -373 345 -543 153 -145 439 -353 566 -413 l50 -24 22 45 c72
141 173 423 215 597 32 135 33 389 1 500 -57 196 -162 348 -308 444 -101 67
-293 107 -400 84z m191 -435 c127 -63 216 -219 248 -437 16 -105 18 -162 16
-518 l-1 -235 -22 26 c-36 40 -251 348 -334 476 -173 271 -247 488 -198 582
30 58 147 131 211 131 16 0 52 -11 80 -25z"/>
<path d="M3988 4639 c-157 -23 -379 -190 -520 -389 -70 -99 -150 -258 -221
-440 -88 -224 -85 -206 -40 -213 21 -4 106 -9 188 -13 514 -22 894 124 1060
407 134 230 92 446 -115 579 -93 59 -234 87 -352 69z m148 -343 c73 -34 77
-59 27 -160 -70 -140 -264 -270 -554 -371 -148 -52 -361 -116 -366 -111 -7 7
265 312 358 402 107 104 189 163 301 219 107 53 155 58 234 21z"/>
<path d="M1273 4575 c-81 -22 -147 -60 -191 -110 -39 -44 -119 -191 -109 -201
2 -3 51 5 108 17 165 34 324 12 458 -63 29 -16 155 -107 280 -202 341 -260
417 -312 526 -366 131 -65 232 -91 360 -93 165 -2 279 46 173 73 -217 55 -329
101 -420 172 -29 23 -189 174 -355 336 -311 303 -382 365 -468 406 -98 47
-254 60 -362 31z"/>
<path d="M1644 3449 c-40 -12 -91 -69 -99 -111 -3 -18 -5 -207 -3 -419 l3
-386 27 -35 c16 -20 43 -42 63 -48 l35 -12 0 -721 c0 -819 -5 -771 80 -815
l44 -22 568 0 568 0 0 1290 0 1290 -627 -1 c-346 0 -642 -5 -659 -10z"/>
<path d="M3180 3445 c0 -8 0 -584 0 -1280 0 -696 0 -1269 0 -1275 0 -7 196
-10 567 -10 552 0 568 1 609 21 31 15 48 32 63 63 21 42 21 56 21 757 l0 715
39 18 c23 9 49 32 60 50 20 32 21 47 21 442 0 388 -1 411 -20 441 -43 72 -2
68 -717 71 -571 2 -643 1 -643 -13z"/>
</g>
</svg>
